<svg width="20" height="14" viewBox="0 0 20 14" fill="none" xmlns="http://www.w3.org/2000/svg">
<mask id="path-1-inside-1_7055_249" fill="white">
<path d="M18.3673 0.395335L7.28372 12.1301L1.64274 5.86188C1.3884 5.58159 0.958276 5.5596 0.678624 5.81125C0.398972 6.06291 0.376344 6.49444 0.627999 6.77409L6.76437 13.5923C6.89221 13.7341 7.07329 13.8154 7.26378 13.818H7.27177C7.45957 13.818 7.63797 13.7408 7.76715 13.6042L19.358 1.33152C19.6164 1.05787 19.6044 0.626408 19.3314 0.368041C19.0584 0.109036 18.6243 0.121627 18.3673 0.395335Z"/>
</mask>
<path d="M18.3673 0.395335L7.28372 12.1301L1.64274 5.86188C1.3884 5.58159 0.958276 5.5596 0.678624 5.81125C0.398972 6.06291 0.376344 6.49444 0.627999 6.77409L6.76437 13.5923C6.89221 13.7341 7.07329 13.8154 7.26378 13.818H7.27177C7.45957 13.818 7.63797 13.7408 7.76715 13.6042L19.358 1.33152C19.6164 1.05787 19.6044 0.626408 19.3314 0.368041C19.0584 0.109036 18.6243 0.121627 18.3673 0.395335Z" fill="#606566"/>
<path d="M18.3673 0.395335L20.1848 2.11196L20.1897 2.10669L18.3673 0.395335ZM7.28372 12.1301L5.42543 13.8024L7.2393 15.8179L9.10119 13.8467L7.28372 12.1301ZM1.64274 5.86188L3.50104 4.18951L3.49413 4.1819L1.64274 5.86188ZM0.627999 6.77409L-1.23034 8.44638L-1.23024 8.4465L0.627999 6.77409ZM6.76437 13.5923L4.90613 15.2647L4.90734 15.266L6.76437 13.5923ZM7.26378 13.818L7.22939 16.3178L7.24658 16.318H7.26378V13.818ZM7.76715 13.6042L9.58313 15.3225L9.58469 15.3208L7.76715 13.6042ZM19.358 1.33152L21.1756 3.04807L21.1758 3.04781L19.358 1.33152ZM19.3314 0.368041L17.6105 2.1815L17.613 2.18382L19.3314 0.368041ZM18.3673 0.395335L16.5498 -1.32129L5.46625 10.4134L7.28372 12.1301L9.10119 13.8467L20.1848 2.11196L18.3673 0.395335ZM7.28372 12.1301L9.14201 10.4577L3.50103 4.18953L1.64274 5.86188L-0.215553 7.53423L5.42543 13.8024L7.28372 12.1301ZM1.64274 5.86188L3.49413 4.1819C2.3193 2.8872 0.314411 2.77579 -0.993671 3.95291L0.678624 5.81125L2.35092 7.6696C1.60214 8.34341 0.457491 8.27598 -0.20866 7.54186L1.64274 5.86188ZM0.678624 5.81125L-0.993671 3.95291C-2.30021 5.12865 -2.40508 7.14096 -1.23034 8.44638L0.627999 6.77409L2.48634 5.1018C3.15776 5.84792 3.09816 6.99717 2.35092 7.6696L0.678624 5.81125ZM0.627999 6.77409L-1.23024 8.4465L4.90613 15.2647L6.76437 13.5923L8.6226 11.9199L2.48624 5.10168L0.627999 6.77409ZM6.76437 13.5923L4.90734 15.266C5.50553 15.9297 6.34931 16.3057 7.22939 16.3178L7.26378 13.818L7.29817 11.3182C7.79728 11.3251 8.27888 11.5385 8.62139 11.9185L6.76437 13.5923ZM7.26378 13.818V16.318H7.27177V13.818V11.318H7.26378V13.818ZM7.27177 13.818V16.318C8.15067 16.318 8.98457 15.9551 9.58313 15.3225L7.76715 13.6042L5.95118 11.886C6.29137 11.5265 6.76846 11.318 7.27177 11.318V13.818ZM7.76715 13.6042L9.58469 15.3208L21.1756 3.04807L19.358 1.33152L17.5405 -0.385042L5.94962 11.8877L7.76715 13.6042ZM19.358 1.33152L21.1758 3.04781C22.38 1.77245 22.3262 -0.239784 21.0498 -1.44773L19.3314 0.368041L17.613 2.18382C16.8826 1.4926 16.8528 0.343291 17.5403 -0.384782L19.358 1.33152ZM19.3314 0.368041L21.0523 -1.44541C19.7751 -2.6574 17.7515 -2.60096 16.5448 -1.31602L18.3673 0.395335L20.1897 2.10669C19.4971 2.84421 18.3418 2.87547 17.6105 2.18149L19.3314 0.368041Z" fill="#FDB056" mask="url(#path-1-inside-1_7055_249)"/>
</svg>
